<?xml version="1.0" encoding="utf-8"?>
<!-- Generator: Adobe Illustrator 22.1.0, SVG Export Plug-In . SVG Version: 6.00 Build 0)  -->
<svg version="1.1" id="Layer_1" xmlns="http://www.w3.org/2000/svg" xmlns:xlink="http://www.w3.org/1999/xlink" x="0px" y="0px"
	 viewBox="0 0 337.7 300.2" style="enable-background:new 0 0 337.7 300.2;" xml:space="preserve">
<style type="text/css">
	.st0{fill:#003E3F;}
	.st1{fill:#FFFFFF;}
	.st2{fill:none;stroke:#FFFFFF;stroke-miterlimit:10;}
	.st3{fill:#4A7C68;}
</style>
<g>
	<path class="st0" d="M215.1,136.7c0,0,77.1-28.7,116.3,30.1c-92.7,88-152,39.2-152,39.2l-7-29.2
		C172.4,176.8,208.4,145.5,215.1,136.7"/>
	<g>
		<path class="st1" d="M215.1,139.2c26.5-9.8,59.8-10.4,85.3,2.3c12.7,6.3,23.1,16,31,27.7c0-1.6,0-3.3,0.1-4.9
			c-29.1,27.4-66.5,53.4-108.2,52.7c-10.5-0.2-21-2.2-30.7-6.2c-3.8-1.6-9.9-3.8-12.8-7.1c-0.2-0.3-0.3-0.4-0.5-1.7
			c-0.7-3.3-1.6-6.6-2.4-9.9c-1.4-5.8-2.8-11.6-4.2-17.5c0,1.6-0.1,3.1-0.1,4.7c6.5-5.6,12.9-11.3,19.2-17.1
			C199.6,154.9,208.4,147.7,215.1,139.2c0.9-1.1-0.3-4.6-0.1-4.9c-6.9,8.8-16,16.1-24.2,23.6c-6.1,5.5-12.2,11-18.4,16.4
			c-0.7,0.6-0.3,3.8-0.1,4.7c1.2,5.2,2.5,10.4,3.7,15.6c0.7,3.1,1.5,6.3,2.2,9.4c0.3,1.2,0.4,3.4,1.1,4.5c1.8,2.7,7.2,4.7,9.9,5.9
			c23.1,10.9,50,9.1,73.6,0.5c26-9.6,48.6-26.7,68.6-45.5c0.6-0.6,0.5-4.3,0.1-4.9c-13-19.2-32.5-31.8-55.4-35.7
			c-16.8-2.9-34.3-1.5-50.8,2.5c-3.4,0.8-6.9,1.8-10.2,3C214.2,134.5,215.2,139.2,215.1,139.2L215.1,139.2z"/>
	</g>
</g>
<g>
	<g>
		<path class="st1" d="M329.2,163.9c-9.7,3.3-19.6,6.3-29.5,9c-16.9,4.7-34.3,9.4-51.9,10.6c-5.8,0.4-13.7,1.1-18.7-2.7
			c0.2,0.2-0.5,1.9,0,2.3c4.3,3.2,10.7,3,15.8,2.9c8.2-0.3,16.4-1.7,24.4-3.3c16.6-3.3,32.9-7.9,49-13c3.6-1.1,7.3-2.3,10.9-3.5
			C329.6,166.1,329.1,164,329.2,163.9L329.2,163.9z"/>
	</g>
</g>
<g>
	<path class="st0" d="M172.5,177.5c0,0,96.7-69.1,85.9-169.7c0,0-8,24.5-52,24c-61.1-0.7-76.2,69.2-76.2,69.2L172.5,177.5z"/>
	<g>
		<path class="st1" d="M172.5,180c12.6-9,24-20.3,34.3-31.8c21.7-24.1,39.3-52.6,47.5-84.1c4.9-18.9,6.2-38.6,4.2-58
			c0,0.1-0.1-1-0.3-0.6c-5.6,16.8-28.5,22.7-43.7,23.7c-7.9,0.5-15.7,0-23.5,1.6c-6.3,1.3-12.3,3.5-18,6.5
			c-9.8,5.3-18.1,13.1-24.7,22.1c-8.2,11.1-15.6,25.2-18.2,39c-0.8,4,0.3,5.9,2.2,9.2c4.2,7.7,8.5,15.3,12.7,23
			C154.2,146.9,163.3,163.4,172.5,180c-0.4-0.6,0.7-3.7,0.1-4.9c-12.3-22.2-24.6-44.5-36.9-66.7c-1.8-3.3-3.6-6.5-5.4-9.8
			c0,1.5,0,3,0.1,4.6c3.5-15.9,11.7-31.8,22.2-44.1c9.1-10.6,21-18.8,34.6-22.4c8.6-2.3,17-2,25.8-2.4c8.6-0.4,17.2-1.9,25.1-5.3
			c8.3-3.6,15-9.1,19.5-16.9c0-0.1,0.7-1.7,0.7-1.7c0.4,0.1,0.6,12.9,0.5,14.4c-0.1,10-1.4,19.9-3.6,29.7c-7.1,31.6-24,60.3-45,84.7
			c-11.2,13.1-23.8,25.8-37.9,35.9C171.5,175.7,172.9,179.6,172.5,180z"/>
	</g>
</g>
<g>
	<g>
		<path class="st1" d="M258,10.6c-6.3,22.6-21.6,41.1-40.3,54.8c-10.7,7.8-22,11.6-34.6,15.1c-10,2.8-17.6,9.5-22.8,18.3
			c-0.3,0.5,0.2,2,0.1,2.2c5.5-9.3,13.5-16,24.1-18.6c12.9-3.1,24.5-8.1,35.1-16.2c17.8-13.6,32.3-31.6,38.4-53.5
			C258.3,12.2,257.9,11,258,10.6L258,10.6z"/>
	</g>
</g>
<path class="st2" d="M216.9,67c0,0-12-24-3-25"/>
<path class="st2" d="M190.8,79.8c0,0-12.9-15.8,4.1-37.8"/>
<path class="st2" d="M224.9,60.9c0,0,9,4.1,22,0.1"/>
<path class="st2" d="M206.1,73.8c0,0,2.8,13.2,33.8,0.2"/>
<path class="st2" d="M179.5,83.6c0,0,22.4,26.4,52.4,13.4"/>
<path class="st2" d="M289.5,176.9c0,0-2.7-16.8,7.3-19.8"/>
<path class="st2" d="M258.8,150.1c-16,2-19,35.5-19,35.5l7,0.1"/>
<path class="st2" d="M261.7,183c0,0-8.9-13.9,20.1-35.9"/>
<path class="st2" d="M251.9,184.4c0,0,5.9,13.7,20.9,10.7"/>
<path class="st2" d="M275.6,180.2c0,0,0.2,9.8,15.2,5.8"/>
<g>
	<g>
		<path class="st3" d="M106.4,19.5c0,0-56,39-84,109c-24.2,60.4-6.6,99.3-1.4,108.7c0.8,1.4,1.6,2.8,2.3,4.3c4.6,9,20.9,45,83,45
			c31.1,0,54.5-19.1,64.4-40.6c15.9-34.7,11.3-75.3-10.8-106.5c-7.7-10.9-17.9-23.5-31.5-37.9C114.4,82.5,104.4,57.5,106.4,19.5z"/>
		<g>
			<path class="st1" d="M105.4,11.3c-8.4,5.9-16.1,13-23.5,20.1C64.5,48.2,49.2,67.2,36.8,88.1c-25.7,43.3-42.2,100-21.6,148.7
				c4.2,9.9,9.7,20.3,16.6,28.5c12.6,15.1,30.6,23.9,49.8,27.5c28.1,5.3,56.6,0.9,77.3-20c20.4-20.5,26.7-52.7,24.5-80.7
				c-1.2-15-5.2-30-11.8-43.5c-6.5-13.2-15.6-24.9-25-36.2c-9-10.7-18.9-20.2-25.4-32.8c-5.8-11.5-9.3-23.9-10.7-36.7
				c-0.8-7.8-0.8-15.7-0.4-23.5c0.1-2.2-0.5-8.5-3.7-8.5c-3.3,0-3.6,6.5-3.7,8.5c-1.3,26.6,2.7,53.7,15.9,77.1
				c6.9,12.2,16.9,21.7,25.8,32.5c8.7,10.5,17.2,21.4,22.9,33.8c11.5,24.9,12.1,53.8-0.2,78.6c-11.4,23.1-36.5,36.6-61.8,36.5
				c-22-0.1-44.7-5-61.9-19.4c-9.3-7.8-13.9-16.4-19.1-26c-20-36.8-8.8-82,9.8-118.2c17.1-33.2,42.1-62.9,71.7-85.6
				c0.5-0.4,1-0.7,1.5-1.1C111.8,24.6,109.6,8.4,105.4,11.3z"/>
		</g>
	</g>
</g>
</svg>
